<svg id="visual" viewBox="0 0 900 300" width="900" height="300" xmlns="http://www.w3.org/2000/svg" xmlns:xlink="http://www.w3.org/1999/xlink" version="1.1"><path d="M0 96L15 99C30 102 60 108 90 111.7C120 115.3 150 116.7 180 114C210 111.3 240 104.7 270 104.3C300 104 330 110 360 114.2C390 118.3 420 120.7 450 117.7C480 114.7 510 106.3 540 105.3C570 104.3 600 110.7 630 112C660 113.3 690 109.7 720 107.3C750 105 780 104 810 103.2C840 102.3 870 101.7 885 101.3L900 101L900 0L885 0C870 0 840 0 810 0C780 0 750 0 720 0C690 0 660 0 630 0C600 0 570 0 540 0C510 0 480 0 450 0C420 0 390 0 360 0C330 0 300 0 270 0C240 0 210 0 180 0C150 0 120 0 90 0C60 0 30 0 15 0L0 0Z" fill="#009473"></path><path d="M0 113L15 108.5C30 104 60 95 90 93.5C120 92 150 98 180 99.2C210 100.3 240 96.7 270 97.7C300 98.7 330 104.3 360 106.5C390 108.7 420 107.3 450 104C480 100.7 510 95.3 540 92.2C570 89 600 88 630 89.3C660 90.7 690 94.3 720 94C750 93.7 780 89.3 810 90C840 90.7 870 96.3 885 99.2L900 102L900 0L885 0C870 0 840 0 810 0C780 0 750 0 720 0C690 0 660 0 630 0C600 0 570 0 540 0C510 0 480 0 450 0C420 0 390 0 360 0C330 0 300 0 270 0C240 0 210 0 180 0C150 0 120 0 90 0C60 0 30 0 15 0L0 0Z" fill="#007e74"></path><path d="M0 77L15 79.3C30 81.7 60 86.3 90 88.3C120 90.3 150 89.7 180 86.7C210 83.7 240 78.3 270 79.2C300 80 330 87 360 87C390 87 420 80 450 75.5C480 71 510 69 540 70.2C570 71.3 600 75.7 630 79.2C660 82.7 690 85.3 720 87.2C750 89 780 90 810 89.7C840 89.3 870 87.7 885 86.8L900 86L900 0L885 0C870 0 840 0 810 0C780 0 750 0 720 0C690 0 660 0 630 0C600 0 570 0 540 0C510 0 480 0 450 0C420 0 390 0 360 0C330 0 300 0 270 0C240 0 210 0 180 0C150 0 120 0 90 0C60 0 30 0 15 0L0 0Z" fill="#00676d"></path><path d="M0 59L15 62.3C30 65.7 60 72.3 90 73.8C120 75.3 150 71.7 180 69.3C210 67 240 66 270 65.5C300 65 330 65 360 66.7C390 68.3 420 71.7 450 71.8C480 72 510 69 540 68.7C570 68.3 600 70.7 630 69.3C660 68 690 63 720 59.5C750 56 780 54 810 53.3C840 52.7 870 53.3 885 53.7L900 54L900 0L885 0C870 0 840 0 810 0C780 0 750 0 720 0C690 0 660 0 630 0C600 0 570 0 540 0C510 0 480 0 450 0C420 0 390 0 360 0C330 0 300 0 270 0C240 0 210 0 180 0C150 0 120 0 90 0C60 0 30 0 15 0L0 0Z" fill="#00505e"></path><path d="M0 41L15 43C30 45 60 49 90 49.3C120 49.7 150 46.3 180 47C210 47.7 240 52.3 270 52.8C300 53.3 330 49.7 360 49.7C390 49.7 420 53.3 450 52.7C480 52 510 47 540 44.3C570 41.7 600 41.3 630 40.8C660 40.3 690 39.7 720 39.2C750 38.7 780 38.3 810 41.8C840 45.3 870 52.7 885 56.3L900 60L900 0L885 0C870 0 840 0 810 0C780 0 750 0 720 0C690 0 660 0 630 0C600 0 570 0 540 0C510 0 480 0 450 0C420 0 390 0 360 0C330 0 300 0 270 0C240 0 210 0 180 0C150 0 120 0 90 0C60 0 30 0 15 0L0 0Z" fill="#023a4b"></path><path d="M0 39L15 36.8C30 34.7 60 30.3 90 29.8C120 29.3 150 32.7 180 34.5C210 36.3 240 36.7 270 36.7C300 36.7 330 36.3 360 35.2C390 34 420 32 450 32C480 32 510 34 540 36C570 38 600 40 630 41.3C660 42.7 690 43.3 720 42.8C750 42.3 780 40.7 810 39.8C840 39 870 39 885 39L900 39L900 0L885 0C870 0 840 0 810 0C780 0 750 0 720 0C690 0 660 0 630 0C600 0 570 0 540 0C510 0 480 0 450 0C420 0 390 0 360 0C330 0 300 0 270 0C240 0 210 0 180 0C150 0 120 0 90 0C60 0 30 0 15 0L0 0Z" fill="#042635"></path><path d="M0 26L15 25.8C30 25.7 60 25.3 90 24.3C120 23.3 150 21.7 180 21.5C210 21.3 240 22.7 270 21.7C300 20.7 330 17.3 360 16.7C390 16 420 18 450 17.3C480 16.7 510 13.3 540 13.8C570 14.3 600 18.7 630 21C660 23.3 690 23.7 720 21.8C750 20 780 16 810 15.8C840 15.7 870 19.3 885 21.2L900 23L900 0L885 0C870 0 840 0 810 0C780 0 750 0 720 0C690 0 660 0 630 0C600 0 570 0 540 0C510 0 480 0 450 0C420 0 390 0 360 0C330 0 300 0 270 0C240 0 210 0 180 0C150 0 120 0 90 0C60 0 30 0 15 0L0 0Z" fill="#001220"></path></svg>